<svg xmlns="http://www.w3.org/2000/svg" xmlns:xlink="http://www.w3.org/1999/xlink" width="400" zoomAndPan="magnify" viewBox="0 0 300 149.999998" height="200" preserveAspectRatio="xMidYMid meet" version="1.0"><defs><g/><clipPath id="59e602244a"><path d="M 7.289062 34 L 76.289062 34 L 76.289062 104 L 7.289062 104 Z M 7.289062 34 " clip-rule="nonzero"/></clipPath><clipPath id="2be55edf56"><path d="M 236.386719 38.578125 L 292.636719 38.578125 L 292.636719 94.828125 L 236.386719 94.828125 Z M 236.386719 38.578125 " clip-rule="nonzero"/></clipPath><clipPath id="a4d6077270"><path d="M 253.636719 38.578125 L 275.386719 38.578125 C 279.960938 38.578125 284.347656 40.398438 287.585938 43.632812 C 290.820312 46.867188 292.636719 51.253906 292.636719 55.828125 L 292.636719 77.578125 C 292.636719 82.15625 290.820312 86.542969 287.585938 89.777344 C 284.347656 93.011719 279.960938 94.828125 275.386719 94.828125 L 253.636719 94.828125 C 249.0625 94.828125 244.675781 93.011719 241.4375 89.777344 C 238.203125 86.542969 236.386719 82.15625 236.386719 77.578125 L 236.386719 55.828125 C 236.386719 51.253906 238.203125 46.867188 241.4375 43.632812 C 244.675781 40.398438 249.0625 38.578125 253.636719 38.578125 Z M 253.636719 38.578125 " clip-rule="nonzero"/></clipPath></defs><g clip-path="url(#59e602244a)"><path fill="#923dfe" d="M 45.582031 88.976562 C 41.574219 92.597656 37.207031 95.710938 32.472656 98.3125 C 31.207031 99.058594 29.894531 99.746094 28.539062 100.378906 C 26.097656 99.367188 23.804688 98.089844 21.65625 96.546875 C 19.507812 95.007812 17.5625 93.242188 15.820312 91.253906 C 14.078125 89.265625 12.585938 87.101562 11.339844 84.769531 C 10.097656 82.4375 9.132812 79.992188 8.453125 77.441406 C 9.828125 78.292969 11.269531 79.109375 12.710938 79.863281 C 17.777344 82.605469 23.082031 84.746094 28.628906 86.28125 C 34.179688 87.820312 39.828125 88.71875 45.582031 88.976562 Z M 25.917969 82.09375 C 23.285156 77.019531 21.242188 71.71875 19.792969 66.1875 C 18.34375 60.660156 17.523438 55.035156 17.332031 49.324219 C 17.332031 47.683594 17.332031 46.046875 17.332031 44.441406 C 15.75 46.027344 14.335938 47.753906 13.089844 49.621094 C 11.847656 51.484375 10.792969 53.453125 9.933594 55.523438 C 9.074219 57.597656 8.421875 59.730469 7.980469 61.929688 C 7.539062 64.128906 7.3125 66.347656 7.304688 68.589844 C 7.304688 70.082031 7.402344 71.570312 7.601562 73.046875 C 8.824219 73.878906 10.070312 74.664062 11.335938 75.40625 C 15.953125 78.195312 20.824219 80.425781 25.953125 82.09375 Z M 46.203125 37.789062 C 47.613281 36.9375 49.054688 36.085938 50.527344 35.332031 C 47.988281 34.65625 45.40625 34.28125 42.777344 34.199219 C 40.152344 34.121094 37.550781 34.339844 34.972656 34.855469 C 32.398438 35.371094 29.914062 36.175781 27.519531 37.261719 C 25.128906 38.347656 22.890625 39.695312 20.808594 41.292969 C 20.808594 42.769531 20.609375 44.242188 20.578125 45.71875 C 20.503906 51.105469 21.015625 56.4375 22.117188 61.710938 C 25.1875 56.875 28.753906 52.4375 32.820312 48.398438 C 36.882812 44.363281 41.347656 40.824219 46.203125 37.789062 Z M 70.683594 57.121094 C 72.125 57.875 73.566406 58.695312 74.941406 59.546875 C 74.261719 56.992188 73.296875 54.550781 72.054688 52.214844 C 70.808594 49.882812 69.316406 47.722656 67.574219 45.734375 C 65.832031 43.746094 63.890625 41.980469 61.742188 40.4375 C 59.59375 38.898438 57.296875 37.621094 54.855469 36.609375 C 53.5 37.242188 52.191406 37.929688 50.921875 38.671875 C 46.195312 41.28125 41.824219 44.394531 37.816406 48.011719 C 43.566406 48.269531 49.214844 49.167969 54.765625 50.703125 C 60.3125 52.242188 65.621094 54.382812 70.683594 57.121094 Z M 66.0625 92.875 C 67.65625 91.28125 69.078125 89.542969 70.332031 87.667969 C 71.585938 85.792969 72.640625 83.816406 73.503906 81.734375 C 74.367188 79.648438 75.019531 77.503906 75.460938 75.289062 C 75.902344 73.078125 76.121094 70.847656 76.121094 68.589844 C 76.125 67.097656 76.027344 65.613281 75.828125 64.136719 C 74.605469 63.328125 73.359375 62.539062 72.09375 61.777344 C 67.46875 59.03125 62.597656 56.847656 57.476562 55.222656 C 60.113281 60.292969 62.152344 65.597656 63.601562 71.125 C 65.050781 76.65625 65.871094 82.277344 66.0625 87.992188 C 66.292969 89.628906 66.292969 91.269531 66.0625 92.875 Z M 37.226562 99.429688 C 35.816406 100.28125 34.375 101.132812 32.898438 101.886719 C 35.4375 102.558594 38.023438 102.9375 40.648438 103.015625 C 43.277344 103.097656 45.878906 102.878906 48.453125 102.359375 C 51.03125 101.84375 53.515625 101.042969 55.90625 99.953125 C 58.300781 98.867188 60.539062 97.523438 62.621094 95.921875 C 62.621094 94.445312 62.816406 92.972656 62.851562 91.496094 C 62.925781 86.109375 62.410156 80.78125 61.308594 75.507812 C 58.238281 80.335938 54.671875 84.769531 50.605469 88.800781 C 46.542969 92.832031 42.082031 96.363281 37.226562 99.394531 Z M 37.226562 99.429688 " fill-opacity="1" fill-rule="nonzero"/></g><g clip-path="url(#2be55edf56)"><g clip-path="url(#a4d6077270)"><path fill="#923dfe" d="M 236.386719 38.578125 L 292.636719 38.578125 L 292.636719 94.828125 L 236.386719 94.828125 Z M 236.386719 38.578125 " fill-opacity="1" fill-rule="nonzero"/></g></g><g fill="#000000" fill-opacity="1"><g transform="translate(81.400157, 83.778326)"><g><path d="M 26.03125 -34.765625 L 34.21875 -34.765625 L 21.109375 0 L 14 0 L 0.390625 -34.765625 L 8.6875 -34.765625 L 17.484375 -10.1875 Z M 26.03125 -34.765625 "/></g></g></g><g fill="#000000" fill-opacity="1"><g transform="translate(113.780901, 83.778326)"><g><path d="M 3.484375 -30.40625 L 3.484375 -37.15625 L 10.734375 -37.15625 L 10.734375 -30.40625 Z M 3.484375 0 L 3.484375 -26.828125 L 10.734375 -26.828125 L 10.734375 0 Z M 3.484375 0 "/></g></g></g><g fill="#000000" fill-opacity="1"><g transform="translate(125.501364, 83.778326)"><g><path d="M 16.59375 -6.453125 L 19.875 -6.453125 L 19.875 0 L 14.75 0 C 11.800781 0 9.472656 -0.847656 7.765625 -2.546875 C 6.066406 -4.253906 5.21875 -6.601562 5.21875 -9.59375 L 5.21875 -21.015625 L 0.34375 -21.015625 L 0.34375 -22.546875 L 10.984375 -33.828125 L 12.3125 -33.828125 L 12.3125 -26.828125 L 19.71875 -26.828125 L 19.71875 -21.015625 L 12.46875 -21.015625 L 12.46875 -10.53125 C 12.46875 -9.238281 12.820312 -8.234375 13.53125 -7.515625 C 14.25 -6.804688 15.269531 -6.453125 16.59375 -6.453125 Z M 16.59375 -6.453125 "/></g></g></g><g fill="#000000" fill-opacity="1"><g transform="translate(144.373454, 83.778326)"><g><path d="M 17.1875 -26.96875 L 19.578125 -26.96875 L 19.578125 -20.109375 L 16.4375 -20.109375 C 14.382812 -20.109375 12.921875 -19.628906 12.046875 -18.671875 C 11.171875 -17.710938 10.734375 -16.140625 10.734375 -13.953125 L 10.734375 0 L 3.484375 0 L 3.484375 -26.828125 L 8.140625 -26.828125 L 9.4375 -23.546875 C 11.257812 -25.828125 13.84375 -26.96875 17.1875 -26.96875 Z M 17.1875 -26.96875 "/></g></g></g><g fill="#000000" fill-opacity="1"><g transform="translate(162.103275, 83.778326)"><g><path d="M 3.484375 -30.40625 L 3.484375 -37.15625 L 10.734375 -37.15625 L 10.734375 -30.40625 Z M 3.484375 0 L 3.484375 -26.828125 L 10.734375 -26.828125 L 10.734375 0 Z M 3.484375 0 "/></g></g></g><g fill="#000000" fill-opacity="1"><g transform="translate(173.823735, 83.778326)"><g><path d="M 18.78125 -27.46875 C 21.820312 -27.46875 24.226562 -26.445312 26 -24.40625 C 27.769531 -22.375 28.65625 -19.65625 28.65625 -16.25 L 28.65625 0 L 21.40625 0 L 21.40625 -15.09375 C 21.40625 -19.101562 19.847656 -21.109375 16.734375 -21.109375 C 14.878906 -21.109375 13.414062 -20.476562 12.34375 -19.21875 C 11.269531 -17.957031 10.734375 -16.253906 10.734375 -14.109375 L 10.734375 0 L 3.484375 0 L 3.484375 -26.828125 L 8.4375 -26.828125 L 9.890625 -23.5 C 10.878906 -24.71875 12.148438 -25.679688 13.703125 -26.390625 C 15.265625 -27.109375 16.957031 -27.46875 18.78125 -27.46875 Z M 18.78125 -27.46875 "/></g></g></g><g fill="#000000" fill-opacity="1"><g transform="translate(203.174968, 83.778326)"><g><path d="M 22 -26.828125 L 29.75 -26.828125 L 18.03125 -0.34375 C 16.96875 2.070312 15.890625 4.015625 14.796875 5.484375 C 13.703125 6.960938 12.457031 8.03125 11.0625 8.6875 C 9.675781 9.351562 7.972656 9.6875 5.953125 9.6875 L 2.984375 9.6875 L 2.984375 3.125 L 5.515625 3.125 C 6.671875 3.125 7.585938 2.988281 8.265625 2.71875 C 8.941406 2.457031 9.519531 1.972656 10 1.265625 C 10.488281 0.554688 11.015625 -0.476562 11.578125 -1.84375 L 11.671875 -2.03125 L 0.296875 -26.828125 L 8.203125 -26.828125 L 15.34375 -10.328125 Z M 22 -26.828125 "/></g></g></g><g fill="#000000" fill-opacity="1"><g transform="translate(230.589299, 83.778326)"><g/></g></g><g fill="#ffffff" fill-opacity="1"><g transform="translate(239.978273, 83.778326)"><g><path d="M 27.078125 0 L 24.640625 -6.609375 L 10.78125 -6.609375 L 8.390625 0 L 0.453125 0 L 14.0625 -34.765625 L 21.15625 -34.765625 L 35.21875 0 Z M 17.6875 -25.578125 L 13.15625 -13.15625 L 22.25 -13.15625 Z M 17.6875 -25.578125 "/></g></g></g><g fill="#ffffff" fill-opacity="1"><g transform="translate(273.153637, 83.778326)"><g><path d="M 3.96875 0 L 3.96875 -34.765625 L 11.53125 -34.765625 L 11.53125 0 Z M 3.96875 0 "/></g></g></g><g fill="#923dfe" fill-opacity="1"><g transform="translate(91.900156, 108.017295)"><g><path d="M 6.46875 -0.6875 L 6.46875 0 L 1.21875 0 L 1.21875 -7.4375 L 6.3125 -7.4375 L 6.3125 -6.75 L 2 -6.75 L 2 -4.109375 L 5.84375 -4.109375 L 5.84375 -3.4375 L 2 -3.4375 L 2 -0.6875 Z M 6.46875 -0.6875 "/></g></g></g><g fill="#923dfe" fill-opacity="1"><g transform="translate(99.810377, 108.017295)"><g><path d="M 1.21875 -7.4375 L 2 -7.4375 L 2 -0.6875 L 6.15625 -0.6875 L 6.15625 0 L 1.21875 0 Z M 1.21875 -7.4375 "/></g></g></g><g fill="#923dfe" fill-opacity="1"><g transform="translate(106.871218, 108.017295)"><g><path d="M 6.46875 -0.6875 L 6.46875 0 L 1.21875 0 L 1.21875 -7.4375 L 6.3125 -7.4375 L 6.3125 -6.75 L 2 -6.75 L 2 -4.109375 L 5.84375 -4.109375 L 5.84375 -3.4375 L 2 -3.4375 L 2 -0.6875 Z M 6.46875 -0.6875 "/></g></g></g><g fill="#923dfe" fill-opacity="1"><g transform="translate(114.781438, 108.017295)"><g><path d="M 6.453125 -3.71875 L 7.203125 -3.71875 L 7.203125 -0.875 C 6.859375 -0.570312 6.445312 -0.335938 5.96875 -0.171875 C 5.5 -0.015625 5 0.0625 4.46875 0.0625 C 3.726562 0.0625 3.0625 -0.0976562 2.46875 -0.421875 C 1.875 -0.742188 1.40625 -1.191406 1.0625 -1.765625 C 0.71875 -2.347656 0.546875 -3 0.546875 -3.71875 C 0.546875 -4.4375 0.71875 -5.082031 1.0625 -5.65625 C 1.40625 -6.238281 1.875 -6.691406 2.46875 -7.015625 C 3.0625 -7.335938 3.734375 -7.5 4.484375 -7.5 C 5.046875 -7.5 5.5625 -7.40625 6.03125 -7.21875 C 6.507812 -7.039062 6.914062 -6.773438 7.25 -6.421875 L 6.75 -5.921875 C 6.164062 -6.503906 5.421875 -6.796875 4.515625 -6.796875 C 3.910156 -6.796875 3.363281 -6.660156 2.875 -6.390625 C 2.394531 -6.128906 2.015625 -5.765625 1.734375 -5.296875 C 1.460938 -4.828125 1.328125 -4.300781 1.328125 -3.71875 C 1.328125 -3.132812 1.460938 -2.609375 1.734375 -2.140625 C 2.015625 -1.671875 2.394531 -1.300781 2.875 -1.03125 C 3.363281 -0.769531 3.90625 -0.640625 4.5 -0.640625 C 5.269531 -0.640625 5.921875 -0.832031 6.453125 -1.21875 Z M 6.453125 -3.71875 "/></g></g></g><g fill="#923dfe" fill-opacity="1"><g transform="translate(123.795854, 108.017295)"><g><path d="M 5.875 -1.984375 L 1.734375 -1.984375 L 0.84375 0 L 0.015625 0 L 3.421875 -7.4375 L 4.203125 -7.4375 L 7.59375 0 L 6.765625 0 Z M 5.59375 -2.625 L 3.796875 -6.625 L 2.015625 -2.625 Z M 5.59375 -2.625 "/></g></g></g><g fill="#923dfe" fill-opacity="1"><g transform="translate(132.215704, 108.017295)"><g><path d="M 7.421875 -7.4375 L 7.421875 0 L 6.78125 0 L 2 -6.03125 L 2 0 L 1.21875 0 L 1.21875 -7.4375 L 1.859375 -7.4375 L 6.65625 -1.40625 L 6.65625 -7.4375 Z M 7.421875 -7.4375 "/></g></g></g><g fill="#923dfe" fill-opacity="1"><g transform="translate(141.654807, 108.017295)"><g><path d="M 4.4375 0.0625 C 3.707031 0.0625 3.046875 -0.0976562 2.453125 -0.421875 C 1.859375 -0.742188 1.390625 -1.191406 1.046875 -1.765625 C 0.710938 -2.347656 0.546875 -3 0.546875 -3.71875 C 0.546875 -4.4375 0.710938 -5.082031 1.046875 -5.65625 C 1.390625 -6.238281 1.859375 -6.691406 2.453125 -7.015625 C 3.046875 -7.335938 3.710938 -7.5 4.453125 -7.5 C 5.003906 -7.5 5.515625 -7.40625 5.984375 -7.21875 C 6.453125 -7.039062 6.847656 -6.773438 7.171875 -6.421875 L 6.671875 -5.921875 C 6.085938 -6.503906 5.351562 -6.796875 4.46875 -6.796875 C 3.882812 -6.796875 3.347656 -6.660156 2.859375 -6.390625 C 2.378906 -6.128906 2.003906 -5.765625 1.734375 -5.296875 C 1.460938 -4.828125 1.328125 -4.300781 1.328125 -3.71875 C 1.328125 -3.132812 1.460938 -2.609375 1.734375 -2.140625 C 2.003906 -1.671875 2.378906 -1.300781 2.859375 -1.03125 C 3.347656 -0.769531 3.882812 -0.640625 4.46875 -0.640625 C 5.363281 -0.640625 6.097656 -0.9375 6.671875 -1.53125 L 7.171875 -1.03125 C 6.847656 -0.675781 6.445312 -0.40625 5.96875 -0.21875 C 5.5 -0.03125 4.988281 0.0625 4.4375 0.0625 Z M 4.4375 0.0625 "/></g></g></g><g fill="#923dfe" fill-opacity="1"><g transform="translate(150.095883, 108.017295)"><g><path d="M 6.46875 -0.6875 L 6.46875 0 L 1.21875 0 L 1.21875 -7.4375 L 6.3125 -7.4375 L 6.3125 -6.75 L 2 -6.75 L 2 -4.109375 L 5.84375 -4.109375 L 5.84375 -3.4375 L 2 -3.4375 L 2 -0.6875 Z M 6.46875 -0.6875 "/></g></g></g><g fill="#923dfe" fill-opacity="1"><g transform="translate(158.006102, 108.017295)"><g/></g></g><g fill="#923dfe" fill-opacity="1"><g transform="translate(161.5951, 108.017295)"><g><path d="M 8.9375 -7.4375 L 8.9375 0 L 8.1875 0 L 8.1875 -5.953125 L 5.265625 -0.953125 L 4.890625 -0.953125 L 1.96875 -5.921875 L 1.96875 0 L 1.21875 0 L 1.21875 -7.4375 L 1.859375 -7.4375 L 5.09375 -1.921875 L 8.28125 -7.4375 Z M 8.9375 -7.4375 "/></g></g></g><g fill="#923dfe" fill-opacity="1"><g transform="translate(172.541849, 108.017295)"><g><path d="M 6.46875 -0.6875 L 6.46875 0 L 1.21875 0 L 1.21875 -7.4375 L 6.3125 -7.4375 L 6.3125 -6.75 L 2 -6.75 L 2 -4.109375 L 5.84375 -4.109375 L 5.84375 -3.4375 L 2 -3.4375 L 2 -0.6875 Z M 6.46875 -0.6875 "/></g></g></g><g fill="#923dfe" fill-opacity="1"><g transform="translate(180.452067, 108.017295)"><g><path d="M 6.46875 -0.6875 L 6.46875 0 L 1.21875 0 L 1.21875 -7.4375 L 6.3125 -7.4375 L 6.3125 -6.75 L 2 -6.75 L 2 -4.109375 L 5.84375 -4.109375 L 5.84375 -3.4375 L 2 -3.4375 L 2 -0.6875 Z M 6.46875 -0.6875 "/></g></g></g><g fill="#923dfe" fill-opacity="1"><g transform="translate(188.362286, 108.017295)"><g><path d="M 2.65625 -6.75 L 0.046875 -6.75 L 0.046875 -7.4375 L 6.0625 -7.4375 L 6.0625 -6.75 L 3.4375 -6.75 L 3.4375 0 L 2.65625 0 Z M 2.65625 -6.75 "/></g></g></g><g fill="#923dfe" fill-opacity="1"><g transform="translate(195.263874, 108.017295)"><g><path d="M 3.265625 0.0625 C 2.710938 0.0625 2.179688 -0.0234375 1.671875 -0.203125 C 1.160156 -0.378906 0.769531 -0.613281 0.5 -0.90625 L 0.8125 -1.515625 C 1.082031 -1.242188 1.4375 -1.023438 1.875 -0.859375 C 2.320312 -0.691406 2.785156 -0.609375 3.265625 -0.609375 C 3.929688 -0.609375 4.429688 -0.726562 4.765625 -0.96875 C 5.097656 -1.21875 5.265625 -1.535156 5.265625 -1.921875 C 5.265625 -2.222656 5.171875 -2.460938 4.984375 -2.640625 C 4.804688 -2.816406 4.585938 -2.953125 4.328125 -3.046875 C 4.066406 -3.140625 3.703125 -3.242188 3.234375 -3.359375 C 2.671875 -3.492188 2.222656 -3.628906 1.890625 -3.765625 C 1.554688 -3.898438 1.269531 -4.097656 1.03125 -4.359375 C 0.800781 -4.628906 0.6875 -5 0.6875 -5.46875 C 0.6875 -5.84375 0.785156 -6.179688 0.984375 -6.484375 C 1.179688 -6.796875 1.484375 -7.039062 1.890625 -7.21875 C 2.296875 -7.40625 2.804688 -7.5 3.421875 -7.5 C 3.847656 -7.5 4.265625 -7.441406 4.671875 -7.328125 C 5.078125 -7.210938 5.429688 -7.050781 5.734375 -6.84375 L 5.46875 -6.21875 C 5.15625 -6.425781 4.820312 -6.578125 4.46875 -6.671875 C 4.113281 -6.773438 3.765625 -6.828125 3.421875 -6.828125 C 2.765625 -6.828125 2.269531 -6.703125 1.9375 -6.453125 C 1.613281 -6.203125 1.453125 -5.878906 1.453125 -5.484375 C 1.453125 -5.179688 1.539062 -4.941406 1.71875 -4.765625 C 1.90625 -4.585938 2.132812 -4.445312 2.40625 -4.34375 C 2.675781 -4.25 3.039062 -4.144531 3.5 -4.03125 C 4.050781 -3.894531 4.492188 -3.757812 4.828125 -3.625 C 5.160156 -3.5 5.441406 -3.300781 5.671875 -3.03125 C 5.910156 -2.769531 6.03125 -2.414062 6.03125 -1.96875 C 6.03125 -1.59375 5.925781 -1.25 5.71875 -0.9375 C 5.519531 -0.632812 5.210938 -0.390625 4.796875 -0.203125 C 4.378906 -0.0234375 3.867188 0.0625 3.265625 0.0625 Z M 3.265625 0.0625 "/></g></g></g><g fill="#923dfe" fill-opacity="1"><g transform="translate(202.600761, 108.017295)"><g/></g></g><g fill="#923dfe" fill-opacity="1"><g transform="translate(206.189765, 108.017295)"><g><path d="M 5.875 -1.984375 L 1.734375 -1.984375 L 0.84375 0 L 0.015625 0 L 3.421875 -7.4375 L 4.203125 -7.4375 L 7.59375 0 L 6.765625 0 Z M 5.59375 -2.625 L 3.796875 -6.625 L 2.015625 -2.625 Z M 5.59375 -2.625 "/></g></g></g><g fill="#923dfe" fill-opacity="1"><g transform="translate(214.609618, 108.017295)"><g><path d="M 4.203125 0.0625 C 3.242188 0.0625 2.492188 -0.210938 1.953125 -0.765625 C 1.410156 -1.316406 1.140625 -2.117188 1.140625 -3.171875 L 1.140625 -7.4375 L 1.9375 -7.4375 L 1.9375 -3.203125 C 1.9375 -2.335938 2.128906 -1.691406 2.515625 -1.265625 C 2.910156 -0.847656 3.472656 -0.640625 4.203125 -0.640625 C 4.953125 -0.640625 5.519531 -0.847656 5.90625 -1.265625 C 6.289062 -1.691406 6.484375 -2.335938 6.484375 -3.203125 L 6.484375 -7.4375 L 7.25 -7.4375 L 7.25 -3.171875 C 7.25 -2.117188 6.984375 -1.316406 6.453125 -0.765625 C 5.921875 -0.210938 5.171875 0.0625 4.203125 0.0625 Z M 4.203125 0.0625 "/></g></g></g><g fill="#923dfe" fill-opacity="1"><g transform="translate(223.825762, 108.017295)"><g><path d="M 2.65625 -6.75 L 0.046875 -6.75 L 0.046875 -7.4375 L 6.0625 -7.4375 L 6.0625 -6.75 L 3.4375 -6.75 L 3.4375 0 L 2.65625 0 Z M 2.65625 -6.75 "/></g></g></g><g fill="#923dfe" fill-opacity="1"><g transform="translate(230.72735, 108.017295)"><g><path d="M 4.46875 0.0625 C 3.726562 0.0625 3.054688 -0.0976562 2.453125 -0.421875 C 1.859375 -0.753906 1.390625 -1.207031 1.046875 -1.78125 C 0.710938 -2.351562 0.546875 -3 0.546875 -3.71875 C 0.546875 -4.4375 0.710938 -5.082031 1.046875 -5.65625 C 1.390625 -6.226562 1.859375 -6.675781 2.453125 -7 C 3.054688 -7.332031 3.726562 -7.5 4.46875 -7.5 C 5.195312 -7.5 5.859375 -7.335938 6.453125 -7.015625 C 7.046875 -6.691406 7.507812 -6.238281 7.84375 -5.65625 C 8.1875 -5.082031 8.359375 -4.4375 8.359375 -3.71875 C 8.359375 -3 8.1875 -2.347656 7.84375 -1.765625 C 7.507812 -1.191406 7.046875 -0.742188 6.453125 -0.421875 C 5.859375 -0.0976562 5.195312 0.0625 4.46875 0.0625 Z M 4.46875 -0.640625 C 5.050781 -0.640625 5.578125 -0.769531 6.046875 -1.03125 C 6.523438 -1.300781 6.898438 -1.671875 7.171875 -2.140625 C 7.441406 -2.609375 7.578125 -3.132812 7.578125 -3.71875 C 7.578125 -4.300781 7.441406 -4.828125 7.171875 -5.296875 C 6.898438 -5.765625 6.523438 -6.128906 6.046875 -6.390625 C 5.578125 -6.660156 5.050781 -6.796875 4.46875 -6.796875 C 3.875 -6.796875 3.335938 -6.660156 2.859375 -6.390625 C 2.378906 -6.128906 2.003906 -5.765625 1.734375 -5.296875 C 1.460938 -4.828125 1.328125 -4.300781 1.328125 -3.71875 C 1.328125 -3.132812 1.460938 -2.609375 1.734375 -2.140625 C 2.003906 -1.671875 2.378906 -1.300781 2.859375 -1.03125 C 3.335938 -0.769531 3.875 -0.640625 4.46875 -0.640625 Z M 4.46875 -0.640625 "/></g></g></g><g fill="#923dfe" fill-opacity="1"><g transform="translate(240.442502, 108.017295)"><g><path d="M 8.9375 -7.4375 L 8.9375 0 L 8.1875 0 L 8.1875 -5.953125 L 5.265625 -0.953125 L 4.890625 -0.953125 L 1.96875 -5.921875 L 1.96875 0 L 1.21875 0 L 1.21875 -7.4375 L 1.859375 -7.4375 L 5.09375 -1.921875 L 8.28125 -7.4375 Z M 8.9375 -7.4375 "/></g></g></g><g fill="#923dfe" fill-opacity="1"><g transform="translate(251.389256, 108.017295)"><g><path d="M 5.875 -1.984375 L 1.734375 -1.984375 L 0.84375 0 L 0.015625 0 L 3.421875 -7.4375 L 4.203125 -7.4375 L 7.59375 0 L 6.765625 0 Z M 5.59375 -2.625 L 3.796875 -6.625 L 2.015625 -2.625 Z M 5.59375 -2.625 "/></g></g></g><g fill="#923dfe" fill-opacity="1"><g transform="translate(259.809109, 108.017295)"><g><path d="M 2.65625 -6.75 L 0.046875 -6.75 L 0.046875 -7.4375 L 6.0625 -7.4375 L 6.0625 -6.75 L 3.4375 -6.75 L 3.4375 0 L 2.65625 0 Z M 2.65625 -6.75 "/></g></g></g><g fill="#923dfe" fill-opacity="1"><g transform="translate(266.710697, 108.017295)"><g><path d="M 1.21875 -7.4375 L 2 -7.4375 L 2 0 L 1.21875 0 Z M 1.21875 -7.4375 "/></g></g></g><g fill="#923dfe" fill-opacity="1"><g transform="translate(270.724391, 108.017295)"><g><path d="M 4.46875 0.0625 C 3.726562 0.0625 3.054688 -0.0976562 2.453125 -0.421875 C 1.859375 -0.753906 1.390625 -1.207031 1.046875 -1.78125 C 0.710938 -2.351562 0.546875 -3 0.546875 -3.71875 C 0.546875 -4.4375 0.710938 -5.082031 1.046875 -5.65625 C 1.390625 -6.226562 1.859375 -6.675781 2.453125 -7 C 3.054688 -7.332031 3.726562 -7.5 4.46875 -7.5 C 5.195312 -7.5 5.859375 -7.335938 6.453125 -7.015625 C 7.046875 -6.691406 7.507812 -6.238281 7.84375 -5.65625 C 8.1875 -5.082031 8.359375 -4.4375 8.359375 -3.71875 C 8.359375 -3 8.1875 -2.347656 7.84375 -1.765625 C 7.507812 -1.191406 7.046875 -0.742188 6.453125 -0.421875 C 5.859375 -0.0976562 5.195312 0.0625 4.46875 0.0625 Z M 4.46875 -0.640625 C 5.050781 -0.640625 5.578125 -0.769531 6.046875 -1.03125 C 6.523438 -1.300781 6.898438 -1.671875 7.171875 -2.140625 C 7.441406 -2.609375 7.578125 -3.132812 7.578125 -3.71875 C 7.578125 -4.300781 7.441406 -4.828125 7.171875 -5.296875 C 6.898438 -5.765625 6.523438 -6.128906 6.046875 -6.390625 C 5.578125 -6.660156 5.050781 -6.796875 4.46875 -6.796875 C 3.875 -6.796875 3.335938 -6.660156 2.859375 -6.390625 C 2.378906 -6.128906 2.003906 -5.765625 1.734375 -5.296875 C 1.460938 -4.828125 1.328125 -4.300781 1.328125 -3.71875 C 1.328125 -3.132812 1.460938 -2.609375 1.734375 -2.140625 C 2.003906 -1.671875 2.378906 -1.300781 2.859375 -1.03125 C 3.335938 -0.769531 3.875 -0.640625 4.46875 -0.640625 Z M 4.46875 -0.640625 "/></g></g></g><g fill="#923dfe" fill-opacity="1"><g transform="translate(280.439543, 108.017295)"><g><path d="M 7.421875 -7.4375 L 7.421875 0 L 6.78125 0 L 2 -6.03125 L 2 0 L 1.21875 0 L 1.21875 -7.4375 L 1.859375 -7.4375 L 6.65625 -1.40625 L 6.65625 -7.4375 Z M 7.421875 -7.4375 "/></g></g></g></svg>